<svg width="54" height="77" viewBox="0 0 54 77" fill="none" xmlns="http://www.w3.org/2000/svg">
<g clip-path="url(#clip0_215_21)">
<path d="M27.0148 0C12.0988 0 0 12.2719 0 27.4012C0 37.748 18.7117 66.5629 24.9984 75.9172C25.9769 77.3609 28.0824 77.3609 29.061 75.9172C35.3476 66.6531 54.0297 38.1691 54.0297 27.4012C54 12.2719 41.9308 0 27.0148 0ZM27.0148 40.3348C19.8682 40.3348 14.056 34.4395 14.056 27.1906C14.056 19.9418 19.8682 14.0465 27.0148 14.0465C34.1614 14.0465 39.9736 19.9418 39.9736 27.1906C39.9736 34.4395 34.1614 40.3348 27.0148 40.3348Z" fill="#163A4D"/>
<path d="M27.0149 0V14.0465C34.1615 14.0465 39.9737 19.9418 39.9737 27.1906C39.9737 34.4395 34.1615 40.3348 27.0149 40.3348V77C27.7859 77 28.5569 76.6391 29.061 75.9172C35.3477 66.6531 54.0297 38.1691 54.0297 27.4012C54.0001 12.2719 41.9309 0 27.0149 0Z" fill="#073249"/>
</g>
<defs>
<clipPath id="clip0_215_21">
<rect width="54" height="77" fill="white"/>
</clipPath>
</defs>
</svg>
