<svg width="103" height="16" viewBox="0 0 103 16" fill="none" xmlns="http://www.w3.org/2000/svg">
<path d="M8.48052 -0.000976562L10.2052 5.30703L15.7864 5.30703L11.2711 8.58756L12.9958 13.8956L8.48052 10.615L3.96526 13.8956L5.68994 8.58756L1.17468 5.30703L6.75585 5.30703L8.48052 -0.000976562Z" fill="#A9765B"/>
<path d="M29.9896 -0.000976562L31.7142 5.30703L37.2954 5.30703L32.7801 8.58756L34.5048 13.8956L29.9896 10.615L25.4743 13.8956L27.199 8.58756L22.6837 5.30703L28.2649 5.30703L29.9896 -0.000976562Z" fill="#A9765B"/>
<path d="M51.4987 -0.000976562L53.2234 5.30703L58.8046 5.30703L54.2893 8.58756L56.014 13.8956L51.4987 10.615L46.9835 13.8956L48.7081 8.58756L44.1929 5.30703L49.774 5.30703L51.4987 -0.000976562Z" fill="#A9765B"/>
<path d="M73.0077 -0.000976562L74.7324 5.30703L80.3136 5.30703L75.7983 8.58756L77.523 13.8956L73.0077 10.615L68.4925 13.8956L70.2172 8.58756L65.7019 5.30703L71.2831 5.30703L73.0077 -0.000976562Z" fill="#A9765B"/>
<path d="M94.5169 -0.000976562L96.2416 5.30703L101.823 5.30703L97.3075 8.58756L99.0322 13.8956L94.5169 10.615L90.0016 13.8956L91.7263 8.58756L87.2111 5.30703L92.7922 5.30703L94.5169 -0.000976562Z" fill="#A9765B"/>
</svg>
