<svg width="12" height="17" viewBox="0 0 12 17" fill="none" xmlns="http://www.w3.org/2000/svg">
<g clip-path="url(#clip0_104_15)">
<path d="M6.00329 0C2.68863 0 0 2.70937 0 6.04961C0 8.33398 4.15815 14.6957 5.55519 16.7609C5.77265 17.0797 6.24053 17.0797 6.45799 16.7609C7.85502 14.7156 12.0066 8.42695 12.0066 6.04961C12 2.70937 9.31796 0 6.00329 0ZM6.00329 8.90508C4.41516 8.90508 3.12356 7.60352 3.12356 6.00313C3.12356 4.40273 4.41516 3.10117 6.00329 3.10117C7.59143 3.10117 8.88303 4.40273 8.88303 6.00313C8.88303 7.60352 7.59143 8.90508 6.00329 8.90508Z" fill="#DBAB92"/>
<path d="M6.0033 0V3.10117C7.59143 3.10117 8.88303 4.40273 8.88303 6.00313C8.88303 7.60352 7.59143 8.90508 6.0033 8.90508V17C6.17463 17 6.34596 16.9203 6.45799 16.7609C7.85503 14.7156 12.0066 8.42695 12.0066 6.04961C12 2.70937 9.31796 0 6.0033 0Z" fill="#A9765B"/>
</g>
<defs>
<clipPath id="clip0_104_15">
<rect width="12" height="17" fill="white"/>
</clipPath>
</defs>
</svg>
